<svg width="512" height="512" viewBox="0 0 512 512" fill="none" xmlns="http://www.w3.org/2000/svg">
  <rect width="512" height="512" rx="112" fill="#3B82F6"/>
  <path d="M256 128C188.3 128 128 188.3 128 256C128 323.7 188.3 384 256 384C323.7 384 384 323.7 384 256C384 188.3 323.7 128 256 128ZM256 340C209.4 340 172 302.6 172 256C172 209.4 209.4 172 256 172C302.6 172 340 209.4 340 256C340 302.6 302.6 340 256 340Z" fill="white"/>
  <circle cx="256" cy="256" r="54" fill="white"/>
  <path d="M348 164L374 190L320 244L294 218L348 164Z" fill="white"/>
</svg>
